<svg width="100" height="100" viewBox="0 0 100 100" fill="none" xmlns="http://www.w3.org/2000/svg">
<g clip-path="url(#clip0_408_2)">
<path d="M16.0885 85L30.9186 58.1967L45.7487 85H16.0885Z" stroke="black" stroke-width="6"/>
<path d="M86.7397 88V52.0696H71.1869C67.9703 52.0696 65.1985 52.6 62.8716 53.6608C60.5447 54.6873 58.7481 56.1759 57.482 58.1264C56.2159 60.0769 55.5828 62.4038 55.5828 65.1072C55.5828 67.7763 56.2159 70.0861 57.482 72.0366C58.7481 73.9529 60.5447 75.4243 62.8716 76.4509C65.1985 77.4775 67.9703 77.9908 71.1869 77.9908H82.12L78.4243 74.3464V88H86.7397ZM63.8982 88L72.8808 74.9624H64.0008L54.9156 88H63.8982ZM78.4243 75.2704L82.12 71.3693H71.6489C69.0824 71.3693 67.1661 70.8218 65.9 69.7268C64.6339 68.5976 64.0008 67.0577 64.0008 65.1072C64.0008 63.1224 64.6339 61.5826 65.9 60.4875C67.1661 59.3925 69.0824 58.845 71.6489 58.845H82.12L78.4243 54.8927V75.2704Z" fill="black"/>
<path d="M85.7487 15L70.9186 41.8033L56.0885 15L85.7487 15Z" stroke="black" stroke-width="6"/>
<path d="M15.2603 48V12.0696H30.8131C34.0297 12.0696 36.8015 12.6 39.1284 13.6608C41.4553 14.6873 43.2519 16.1759 44.518 18.1264C45.7841 20.0769 46.4172 22.4038 46.4172 25.1072C46.4172 27.7763 45.7841 30.0861 44.518 32.0366C43.2519 33.9529 41.4553 35.4243 39.1284 36.4509C36.8015 37.4775 34.0297 37.9908 30.8131 37.9908H19.88L23.5757 34.3464V48H15.2603ZM38.1018 48L29.1192 34.9624H37.9992L47.0844 48H38.1018ZM23.5757 35.2704L19.88 31.3693H30.3511C32.9176 31.3693 34.8339 30.8218 36.1 29.7268C37.3661 28.5976 37.9992 27.0577 37.9992 25.1072C37.9992 23.1224 37.3661 21.5826 36.1 20.4875C34.8339 19.3925 32.9176 18.845 30.3511 18.845H19.88L23.5757 14.8927V35.2704Z" fill="black"/>
<line x1="4.5" y1="97" x2="4.5" y2="67" stroke="black" stroke-width="5"/>
<line x1="2" y1="94.5" x2="32" y2="94.5" stroke="black" stroke-width="5"/>
<rect x="22.9983" y="84" width="2" height="7" transform="rotate(88.7397 22.9983 84)" fill="#FF0000"/>
</g>
<defs>
<clipPath id="clip0_408_2">
<rect width="100" height="100" fill="white"/>
</clipPath>
</defs>
</svg>
