<svg width="178" height="62" viewBox="0 0 178 62" fill="none" xmlns="http://www.w3.org/2000/svg">
<g clip-path="url(#clip0_408_21)">
<path d="M131.17 46L146 19.1967L160.83 46H131.17Z" stroke="black" stroke-width="6"/>
<path d="M92.2603 49V13.0696H107.813C111.03 13.0696 113.801 13.6 116.128 14.6608C118.455 15.6873 120.252 17.1759 121.518 19.1264C122.784 21.0769 123.417 23.4038 123.417 26.1072C123.417 28.7763 122.784 31.0861 121.518 33.0366C120.252 34.9529 118.455 36.4243 116.128 37.4509C113.801 38.4775 111.03 38.9908 107.813 38.9908H96.88L100.576 35.3464V49H92.2603ZM115.102 49L106.119 35.9624H114.999L124.084 49H115.102ZM100.576 36.2704L96.88 32.3693H107.351C109.918 32.3693 111.834 31.8218 113.1 30.7268C114.366 29.5976 114.999 28.0577 114.999 26.1072C114.999 24.1224 114.366 22.5826 113.1 21.4875C111.834 20.3925 109.918 19.845 107.351 19.845H96.88L100.576 15.8927V36.2704Z" fill="black"/>
<path d="M82.7487 16L67.9186 42.8033L53.0885 16L82.7487 16Z" stroke="black" stroke-width="6"/>
<path d="M13.2603 49V13.0696H28.8131C32.0297 13.0696 34.8015 13.6 37.1284 14.6608C39.4553 15.6873 41.2519 17.1759 42.518 19.1264C43.7841 21.0769 44.4172 23.4038 44.4172 26.1072C44.4172 28.7763 43.7841 31.0861 42.518 33.0366C41.2519 34.9529 39.4553 36.4243 37.1284 37.4509C34.8015 38.4775 32.0297 38.9908 28.8131 38.9908H17.88L21.5757 35.3464V49H13.2603ZM36.1018 49L27.1192 35.9624H35.9992L45.0844 49H36.1018ZM21.5757 36.2704L17.88 32.3693H28.3511C30.9176 32.3693 32.8339 31.8218 34.1 30.7268C35.3661 29.5976 35.9992 28.0577 35.9992 26.1072C35.9992 24.1224 35.3661 22.5826 34.1 21.4875C32.8339 20.3925 30.9176 19.845 28.3511 19.845H17.88L21.5757 15.8927V36.2704Z" fill="black"/>
<line x1="175" y1="55.5" x2="145" y2="55.5" stroke="black" stroke-width="5"/>
<line x1="172.5" y1="58" x2="172.5" y2="28" stroke="black" stroke-width="5"/>
<rect x="161.998" y="45" width="2" height="7" transform="rotate(88.7397 161.998 45)" fill="#FF0000"/>
</g>
<defs>
<clipPath id="clip0_408_21">
<rect width="178" height="62" fill="white"/>
</clipPath>
</defs>
</svg>
